<svg xmlns="http://www.w3.org/2000/svg" xmlns:svg="http://www.w3.org/2000/svg" id="svg76" width="1382.616" height="1382.616" version="1.1" viewBox="0 0 1382.616 1382.616"><g id="g82"><path style="fill:#000;stroke-width:1.35021" id="path367" d="m 525.82436,1178.6745 -4.43155,-0.06 -4.82199,-2.5492 -4.822,-2.5492 -1.78969,-2.1565 -1.78968,-2.1564 3.13396,-3.336 3.13396,-3.3359 h 1.5807 1.58067 l 2.50315,2.7659 2.50314,2.766 3.98346,-0.4031 3.98346,-0.4031 1.47948,-2.3628 1.47947,-2.3629 -1.4812,-2.3629 -1.48121,-2.3628 -2.90007,-0.4315 -2.90008,-0.4314 -0.0184,-1.5939 -0.0185,-1.5939 -0.81415,-3.0379 -0.81414,-3.038 h 2.81038 2.8104 l 1.56867,-2.9311 1.56867,-2.9311 -2.25901,-1.6518 -2.25903,-1.6518 -2.54427,0.6653 -2.54427,0.6653 -0.72613,1.8923 -0.72613,1.8923 h -3.92768 -3.92768 l -1.62728,-1.9608 -1.62727,-1.9607 2.4746,-3.3294 2.47461,-3.3293 4.434,-2.1361 4.43398,-2.1361 h 3.3731 3.37308 l 4.50591,1.8827 4.5059,1.8827 2.20179,3.1435 2.20177,3.1435 v 3.4498 3.4497 l -2.08429,2.9758 -2.08429,2.9757 2.94997,3.9901 2.94996,3.99 -0.80796,4.9789 -0.80796,4.9789 -2.42059,2.7193 -2.42057,2.7193 -4.34482,1.839 -4.34482,1.8389 -4.43155,-0.06 z m 381.49908,-1.3477 -6.7486,0.8658 -3.3786,-0.9036 -3.3786,-0.9036 -3.5964,-2.3564 -3.5964,-2.3565 v -1.6347 -1.6346 l 3.296,-3.0964 3.2959,-3.0964 3.6372,2.861 3.6372,2.8611 h 3.0281 3.0281 l 1.7748,-2.1385 1.7748,-2.1385 -1.4106,-2.2364 -1.4107,-2.2364 -8.4408,-3.2231 -8.4407,-3.2231 -1.8139,-4.3412 -1.8138,-4.3411 0.7947,-3.2508 0.7948,-3.2507 2.1724,-2.5492 2.1725,-2.5492 4.3448,-1.839 4.3448,-1.839 h 4.3129 4.313 l 5.857,3.4325 5.857,3.4324 v 1.2014 1.2013 l -4.1232,2.936 -4.1232,2.936 -2.3966,-2.1689 -2.3966,-2.169 h -4.1374 -4.1374 l -0.7393,1.9266 -0.7394,1.9266 1.7715,1.4702 1.7714,1.4701 6.7032,1.9907 6.7033,1.9906 2.4064,2.6591 2.4065,2.6591 0.6692,5.9373 0.6692,5.9373 -3.983,4.4577 -3.9829,4.4577 z m -333.14621,-0.1805 -14.72613,0.5508 0.88647,-10.4869 0.88646,-10.4869 v -13.4145 -13.4146 l 15.43352,0.4537 15.43351,0.4538 3.72357,2.7838 3.72356,2.7839 2.69638,3.6115 2.69639,3.6115 0.58356,8.0678 0.58357,8.0678 -3.48803,5.9518 -3.48802,5.9519 -5.10935,2.4819 -5.10933,2.4818 z m 5.99381,-10.8734 6.79513,-0.6529 3.33146,-3.1298 3.33147,-3.1297 v -5.6565 -5.6565 l -3.3947,-3.3947 -3.39472,-3.3947 -4.20022,-0.84 -4.20024,-0.8401 h -2.53164 -2.53165 v 13.6739 13.6739 z m 70.10248,11.111 h -5.33641 v -23.6287 -23.6286 h 13.52195 13.52193 l 4.78664,4.3881 4.78666,4.3882 0.0757,5.547 0.0758,5.547 -2.26285,3.4536 -2.26285,3.4535 -2.28187,1.0233 -2.28187,1.0233 -8.10126,0.7779 -8.10127,0.7778 -0.40198,8.4388 -0.40197,8.4388 h -5.33643 z m 11.42462,-26.0983 4.42312,-0.4874 1.55982,-0.964 1.55983,-0.9641 v -3.2483 -3.2483 l -2.76719,-1.481 -2.7672,-1.4809 -3.52441,0.4207 -3.5244,0.4208 -0.21316,4.7258 -0.21315,4.7257 0.52181,1.0342 0.5218,1.0342 z m 40.62294,26.0983 h -6.07595 v -23.6287 -23.6286 h 13.45512 13.45513 l 4.73089,4.1537 4.73089,4.1538 0.83643,4.4586 0.83643,4.4585 -2.20975,4.2732 -2.20976,4.2732 -3.28331,1.496 -3.28332,1.496 6.04869,8.4765 6.04867,8.4764 v 0.7707 0.7707 h -6.4135 -6.4135 l -3.76714,-6.7073 -3.76716,-6.7073 -2.06768,-2.0677 -2.0677,-2.0677 h -1.25377 -1.25376 v 8.7764 8.7764 h -6.07595 z m 11.97024,-27.2717 5.5825,-0.4076 v -4.0001 -4.0001 l -4.31233,-1.2367 -4.31233,-1.2368 -1.8464,0.7085 -1.84642,0.7086 0.57623,4.9359 0.57625,4.9358 z m 40.01288,27.2717 h -5.40085 v -23.6287 -23.6286 h 5.40085 5.40084 v 23.6286 23.6287 z m 27.63044,0 h -6.0271 v -23.6287 -23.6286 h 5.2604 5.2603 l 9.1286,12.8782 9.1287,12.8782 1.1385,0.7036 1.1384,0.7035 v -13.5817 -13.5818 h 5.4008 5.4009 v 23.6286 23.6287 h -5.2865 -5.2864 l -9.2283,-12.9017 -9.2284,-12.9018 -0.3864,12.9018 -0.3864,12.9017 z m 72.2471,0 h -5.3628 v -18.7667 -18.7667 l -7.4261,0.5158 -7.4262,0.5158 v -5.3778 -5.3777 h 20.9283 20.9282 v 4.6583 4.6584 l -7.7637,0.4049 -7.7637,0.4049 -0.3756,18.5654 -0.3757,18.5654 z m -520.59177,-15.5274 -2.03682,2.7004 0.75073,-3.3755 0.75073,-3.3755 1.92998,-16.2026 1.92997,-16.2025 2.11437,-21.6034 2.11437,-21.6033 0.73879,-8.0147 0.7388,-8.0146 1.93136,-27.0909 1.93136,-27.0908 0.0285,-7.6906 0.0285,-7.69069 18.23011,-0.41062 18.23013,-0.41062 -0.003,46.96473 -0.003,46.9647 -3.23224,6.3686 -3.23223,6.3686 -9.37941,14.1772 -9.37942,14.1773 -11.07305,14.1772 -11.07304,14.1772 -2.03682,2.7004 z m 762.05963,-64.4594 -1.7674,-0.3244 -66.0428,-0.3637 -66.04276,-0.3637 0.8871,-61.4216 0.887,-61.42161 h -54.7346 -54.7346 l 0.3967,9.78903 0.3967,9.78902 47.5949,-0.34079 47.5949,-0.34079 v 1.7237 1.7237 l -5.8017,10.09384 -5.8018,10.0939 -1.9619,3.1565 -1.962,3.1565 -9.0134,4.5736 -9.0135,4.5736 -0.8553,1.3838 -0.8552,1.3839 h -30.3547 -30.3546 l 0.3921,11.1392 0.3922,11.1393 42.1941,0.3568 42.1941,0.3567 v 19.5589 19.5588 h -64.1351 -64.135 v -81.0127 -81.01263 h 95.8512 95.85126 l 0.3513,61.09704 0.3513,61.09709 31.8646,0.3615 31.8648,0.3615 14.1202,18.5414 14.1203,18.5415 1.0145,1.6877 1.0146,1.6878 z m -640.36395,-1.0258 h -22.06672 l -22.41095,-45.0263 -22.41095,-45.0262 v -4.9047 -4.90472 l 28.69199,-0.36441 28.69198,-0.3644 0.3919,-11.12296 0.39188,-11.12294 -50.94851,-0.35385 -50.94852,-0.35384 -15.26616,-16.69162 -15.26616,-16.69162 v -2.54888 -2.54889 l 229.19831,0.0259 229.1983,0.0259 9.789,8.18267 9.7891,8.18267 v 17.10782 17.1078 l -2.8372,4.72574 -2.8371,4.72574 -2.8962,3.15234 -2.8962,3.15235 7.132,6.2992 7.132,6.2991 -0.3809,34.3644 -0.381,34.3644 -10.5203,7.1546 -10.5202,7.1546 h -64.74039 -64.7404 l -0.35118,-61.7722 -0.35118,-61.77216 -44.55696,-0.1276 -44.55696,-0.12759 -5.06329,0.61292 -5.06329,0.61293 v 9.30377 9.30375 h 41.18143 41.18144 v 1.20798 1.20799 l -2.78853,9.25621 -2.78852,9.2561 -11.05114,10.4104 -11.05114,10.4105 -28.07148,0.054 -28.07148,0.054 0.39216,11.1392 0.39215,11.1393 1.68777,0.1688 1.68776,0.1687 39.15612,0.1688 39.15612,0.1688 v 19.578 19.5781 l -61.77216,5e-4 -61.77215,5e-4 0.37719,-61.4351 0.37719,-61.43514 h -7.4658 -7.46579 v 20.98611 20.98613 l -5.95995,6.3557 -5.95997,6.3557 -7.5204,4.5398 -7.52041,4.5398 -4.65553,1.6005 -4.65552,1.6005 6.12935,12.7626 6.12936,12.7627 7.2015,15.1898 7.2015,15.1899 h -22.07672 z m 263.23796,-40.5063 h 34.43038 v -10.8017 -10.8017 h -34.43038 -34.43038 v 10.8017 10.8017 z m -27.45176,-62.91209 5.84838,-0.12719 18.90296,-0.22 18.90295,-0.22 6.75105,-8.17353 6.75106,-8.17353 0.45006,-1.26827 0.45008,-1.2683 H 716.6108 684.09323 v 9.22643 9.22645 l 0.56512,0.56258 0.56511,0.56259 5.84839,-0.12719 z m 25.79675,-153.82625 -1.49763,2.671 -1.43322,-3.3461 -1.43321,-3.3461 -7.60299,-19.57805 -7.60302,-19.57806 -4.4635,-12.1519 -4.4635,-12.1519 -9.64729,-24.9789 -9.64729,-24.9789 -6.12196,-16.20254 -6.12197,-16.20253 -3.92264,-10.503 -3.92264,-10.50301 v -2.42833 -2.42833 l 13.16456,-6.31129 13.16456,-6.3113 2.78338,0.003 2.78338,0.003 2.95501,2.75303 2.95502,2.75301 0.15989,-1.06525 0.15989,-1.06526 -0.14369,-0.96407 -0.1437,-0.96406 2.04359,0.78419 2.04358,0.7842 -1.72223,2.20518 -1.72222,2.20404 2.14955,-1.67604 2.14954,-1.67606 1.1049,1.00095 1.1049,1.00094 -1.06456,-1.83872 -1.06456,-1.83873 1.81547,-1.12201 1.81545,-1.12202 1.73305,1.43831 1.73305,1.4383 v -2.19065 -2.19064 h 1.27052 1.27054 l 0.82434,1.33383 0.82436,1.33384 -8.84594,4.05152 -8.84593,4.05152 v 1.11424 1.11423 l 8.88143,25.56792 8.88143,25.56792 5.46922,15.16237 5.46922,15.16237 1.26006,-0.77876 1.26007,-0.77876 1.41881,-3.58192 1.41883,-3.58192 12.44831,-36.8628 12.4483,-36.86281 -4.15723,-2.96021 -4.15724,-2.96021 -1.67034,0.38358 -1.67036,0.38358 0.81122,-2.11401 0.81123,-2.11403 1.80849,1.50093 1.80848,1.5009 1.46851,-0.90758 1.4685,-0.90759 1.7051,1.41512 1.7051,1.4151 1.90936,-2.64907 1.90935,-2.64909 2.7399,-0.0202 2.7399,-0.0203 12.82701,5.71574 12.82704,5.71574 0.8498,1.20943 0.8499,1.20945 -1.665,6.25966 -1.665,6.25968 -6.1864,16.87763 -6.18646,16.87764 -9.73258,26.32911 -9.73257,26.32912 -4.61386,12.15189 -4.61385,12.1519 -4.51999,12.82701 -4.51998,12.827 -4.59046,11.47679 -4.59045,11.4768 -1.49764,2.67098 z M 700.97087,652.15188 h 0.6751 v -0.6751 -0.67511 h -0.6751 -0.67511 v 0.67511 0.6751 z m -296.37131,102.45786 -3.37552,2.14239 5.32214,-6.7305 5.32215,-6.73051 4.80443,-5.46271 4.80444,-5.46272 8.39079,-10.06471 8.39078,-10.06471 17.74191,-21.60338 17.7419,-21.60337 7.18885,-8.92129 7.18883,-8.92129 1.78396,-1.91294 1.78395,-1.91292 6.7656,-8.06873 6.76558,-8.06874 5.38631,-6.56837 5.38631,-6.56838 5.85417,-7.60883 5.85417,-7.60885 -0.8586,-9.45147 -0.85859,-9.45148 -0.64258,-2.18706 -0.64258,-2.18706 4.22872,-0.84573 4.2287,-0.84574 19.52791,-9.4851 19.52791,-9.4851 6.33909,-6.38506 6.33909,-6.38506 3.81099,-9.78118 3.81099,-9.78118 1.42841,-0.8828 1.4284,-0.88281 -0.68973,12.68931 -0.68973,12.6893 -4.92649,12.67917 -4.92648,12.67918 -6.77507,12.01848 -6.77506,12.01849 -6.21615,9.73272 -6.21614,9.73271 -6.02598,7.95654 -6.02598,7.95655 2.49804,-0.76516 2.49805,-0.76517 22.95359,-10.31441 22.95358,-10.31439 25.65401,-11.53619 25.65401,-11.53619 5.40084,-2.86501 5.40085,-2.86503 0.33192,-0.1354 0.33192,-0.1354 -4.95997,-9.66731 -4.95997,-9.6673 0.57741,-0.41968 0.57742,-0.41967 13.50211,-5.20344 13.50211,-5.20346 8.98033,-3.96423 8.98034,-3.96422 0.63221,-4.94226 0.63221,-4.94224 -0.83618,-0.90181 -0.83617,-0.90179 -19.39035,-8.26834 -19.39037,-8.26833 -8.26394,-4.17162 -8.26395,-4.17163 -9.06128,-5.96961 -9.06129,-5.96959 -4.12828,-4.70187 -4.1283,-4.70186 v -1.47202 -1.472 l 4.38819,0.89117 4.38818,0.89117 9.45148,1.25872 9.45147,1.25873 6.07595,0.22202 6.07595,0.22202 3.37553,-0.22713 3.37553,-0.22713 -6.75106,-3.15995 -6.75105,-3.15994 -10.12658,-4.16849 -10.12659,-4.16848 0.32135,-1.35004 0.32137,-1.35003 -2.00913,0.77097 -2.00911,0.77097 v -1.57436 -1.57435 l -1.01266,0.61306 -1.01266,0.61308 -1.6066,-1.73972 -1.60661,-1.73973 0.80727,-0.80727 0.80726,-0.80726 2.14955,1.67606 2.14955,1.67604 -1.80291,-2.30241 -1.80291,-2.30239 -2.58527,1.61453 -2.58528,1.61453 -2.6821,-1.67499 -2.6821,-1.67501 h -2.12333 -2.12331 l 0.82491,-1.33475 0.82492,-1.33474 -1.92135,0.73729 -1.92135,0.73729 -2.03867,-2.03867 -2.03867,-2.03867 -0.83584,0.83585 -0.83585,0.83584 v -1.65493 -1.65493 l -1.68777,0.97126 -1.68776,0.97126 1.00094,-1.1049 1.00095,-1.10489 -1.50382,-1.812 -1.50383,-1.812 h 2.19065 2.19064 v 2.11631 2.11631 l 2.86951,-0.91076 2.86951,-0.91074 -1.04227,1.83242 -1.04228,1.83241 1.73805,-1.60749 1.73806,-1.60748 4.84941,3.29524 4.8494,3.29526 h 2.4345 2.4345 l 3.49176,2.28789 3.49177,2.2879 2.19912,0.19973 2.19913,0.19974 9.45147,3.09038 9.45148,3.09037 2.70042,1.10713 2.70042,1.10714 11.41213,2.2358 11.41215,2.2358 7.31805,-0.60687 7.31805,-0.60688 1.52298,-2.57566 1.52297,-2.57568 0.67511,-13.30415 0.6751,-13.30416 -0.6751,-1.00848 -0.67511,-1.00847 -2.72113,-1.4303 -2.72115,-1.43027 -40.4856,-16.86174 -40.48562,-16.86174 -22.15196,-8.92832 -22.15197,-8.92833 -0.49696,0.49696 -0.49696,0.49696 5.21502,8.63097 5.21501,8.63095 2.26918,6.72783 2.26919,6.72783 0.80055,6.81146 0.80056,6.81145 -1.48787,9.41431 -1.48786,9.41429 -1.368,4.72574 -1.36799,4.72574 -1.38607,2.02531 -1.38606,2.02532 -4.34749,-4.90712 -4.34749,-4.90713 -13.11509,-19.39667 -13.11507,-19.39667 -8.8905,-11.10125 -8.89051,-11.10124 -9.17959,-9.28952 -9.1796,-9.28952 -23.49836,-18.65281 -23.49837,-18.65283 -8.42441,-7.35338 -8.42441,-7.35339 0.86932,-1.40658 0.86932,-1.4066 -1.46594,0.906 -1.46592,0.906 -12.37343,-11.77493 -12.37343,-11.77492 -5.73834,-8.16296 -5.73834,-8.16296 -0.97926,-1.71282 -0.97926,-1.71284 7.18378,3.20864 7.18378,3.20863 18.22785,8.15873 18.22785,8.15873 22.95359,10.07964 22.95358,10.07962 26.32912,11.55785 26.32911,11.55784 17.55274,7.65263 17.55274,7.65265 19.57806,8.52462 19.57806,8.52464 4.72574,0.75006 4.72574,0.75005 23.03996,0.27154 23.03994,0.27153 11.53626,3.69007 11.53625,3.69006 7.70203,1.72364 7.70203,1.72364 7.00446,-1.69249 7.00446,-1.69249 10.12659,-3.15204 10.12658,-3.15205 6.75105,-0.76375 6.75106,-0.76375 22.99047,-0.14007 22.9904,-0.14008 20.2163,-8.82111 20.2163,-8.82109 40.5064,-17.98925 40.5063,-17.98924 50.9636,-22.86775 50.96356,-22.86774 -3.0045,5.57251 -3.0044,5.57251 -15.5541,15.61555 -15.55406,15.61556 -13.5021,11.46984 -13.5021,11.46984 -18.903,15.31275 -18.9029,15.31276 -7.8618,7.55965 -7.8618,7.55966 -9.8775,12.1519 -9.8776,12.1519 -12.4827,18.90295 -12.4826,18.90295 -4.6364,5.7384 -4.6363,5.7384 h -1.8264 -1.8264 l -2.0466,-6.41351 -2.0466,-6.4135 -1.5705,-7.94368 -1.5705,-7.9437 0.9454,-7.56673 0.9454,-7.56673 2.3267,-7.47598 2.3268,-7.47597 4.9622,-7.75712 4.9622,-7.75711 v -1.25307 -1.25305 l -8.4388,3.84484 -8.4389,3.84484 -29.0295,11.75382 -29.0295,11.7538 -28.69202,12.13301 -28.69199,12.133 v 13.9575 13.9575 l 2.11974,2.11974 2.11972,2.11973 3.42884,0.86057 3.42882,0.86059 9.0362,-0.75757 9.03622,-0.75756 12.08187,-3.48231 12.0819,-3.48232 9.2548,-3.24057 9.2549,-3.24058 1.4793,-1.47936 1.4794,-1.47937 h 2.4974 2.4974 l 4.1055,-2.123 4.1054,-2.12302 1.9736,0.75733 1.9736,0.75734 -0.8249,-1.33474 -0.8249,-1.33475 h 1.3502 1.3502 l 0.8345,1.35021 0.8344,1.35021 1.6081,-0.0207 1.6081,-0.0207 -1.4836,-0.99197 -1.4835,-0.99199 0.021,-2.37071 0.021,-2.3707 3.103,2.03315 3.103,2.03316 h 0.6802 0.6803 l -0.6529,-1.70125 -0.6528,-1.70126 4.0707,-0.16636 4.0708,-0.16636 v 0.48273 0.48273 l -4.2058,2.17489 -4.2058,2.1749 -1.4651,-1.46512 -1.4651,-1.46515 h -1.2455 -1.2455 l 1.6668,2.00838 1.6669,2.00839 -23.4425,11.3085 -23.4424,11.3085 -6.4135,2.39398 -6.4135,2.39398 v 0.57293 0.57294 l 12.4562,-0.2738 12.4562,-0.27378 7.4594,-1.7847 7.4594,-1.7847 1.6878,-0.0481 1.6878,-0.0481 v 1.62152 1.62151 l -7.7637,7.54502 -7.7638,7.545 -14.8523,7.53047 -14.8523,7.53045 -18.5654,7.82678 -18.5654,7.82678 v 5.94066 5.94066 l 9.11393,4.176 9.11392,4.17598 13.19525,4.32135 13.1952,4.32135 0.7311,0.73107 0.7311,0.73109 -4.8991,9.72823 -4.899,9.72823 0.4242,0.19917 0.4242,0.19918 3.2075,1.8051 3.2076,1.80508 27.1722,12.17599 27.1722,12.17597 12.6677,5.33656 12.6676,5.33656 13.3239,6.68624 13.3239,6.68624 v -0.68362 -0.68362 l -6.1392,-8.33957 -6.1392,-8.33955 -7.5861,-12.25496 -7.586,-12.25494 -9.1515,-18.72894 -9.1515,-18.72893 -1.427,-6.65398 -1.4271,-6.65398 v -8.70991 -8.70992 h 1.2532 1.2532 l 2.8874,7.76372 2.8875,7.76371 3.2714,5.6173 3.2715,5.61729 8.4529,5.65344 8.4529,5.65346 12.1519,5.80288 12.1519,5.80288 7.1198,2.49487 7.1197,2.49487 -0.623,4.0602 -0.6231,4.06019 -0.8541,7.50024 -0.8541,7.50022 7.7608,10.05252 7.7608,10.05251 32.4297,39.15611 32.4297,39.15612 20.89986,24.9789 20.8998,24.97891 2.1278,2.61372 2.1277,2.61373 -5.4007,-3.18854 -5.4009,-3.18855 -3.3755,-2.25623 -3.3755,-2.25622 -33.08016,-18.9373 -33.0802,-18.93729 -45.232,-23.90113 -45.2321,-23.90114 -56.0338,-27.75198 -56.03373,-27.75199 -12.58473,-5.90344 -12.58474,-5.90343 h -2.5791 -2.57911 l -75.30029,37.57539 -75.30029,37.57538 -24.9789,13.20587 -24.97891,13.20589 -11.47679,6.12913 -11.47679,6.12914 -22.95359,12.86986 -22.95358,12.86984 -17.55275,10.08212 -17.55274,10.08214 z M 804.93714,471.22362 h 0.6751 v -0.67511 -0.6751 h -0.6751 -0.6751 v 0.6751 0.67511 z m 6.751,-2.70042 h 0.6751 v -0.67511 -0.67511 h -0.6751 -0.6751 v 0.67511 0.67511 z m 1.3502,-2.70043 h 0.6751 v -0.6751 -0.67511 h -0.6751 -0.6751 v 0.67511 0.6751 z m 2.7005,0 h 0.6751 v -0.6751 -0.67511 h -0.6751 -0.6751 v 0.67511 0.6751 z m -210.63295,-6.75105 h 0.6751 v -0.67511 -0.6751 h -0.6751 -0.67511 v 0.6751 0.67511 z m 233.58645,-2.70042 h 0.6752 v -0.67511 -0.6751 h -0.6752 -0.6751 v 0.6751 0.67511 z m 126.9199,-139.07173 h 0.6751 v -0.67511 -0.6751 h -0.6751 -0.6751 v 0.6751 0.67511 z m -234.36231,336.75329 -0.57866,0.57866 -2.59974,-1.90098 -2.59974,-1.90097 0.57866,-0.57866 0.57866,-0.57866 2.59974,1.90097 2.59974,1.90098 z m -25.55333,-3.25119 h -1.80027 l 0.90013,-0.90014 0.90014,-0.90013 0.90015,0.90013 0.90013,0.90014 z m 16.87764,0 h -0.67511 v -0.6751 -0.67511 h 0.67511 0.67511 v 0.67511 0.6751 z m -11.71493,-2.57297 -2.78816,1.49218 0.91324,-1.47766 0.91325,-1.47767 2.78815,-1.49217 2.78816,-1.49218 -0.91324,1.47765 -0.91324,1.47767 z m 9.23955,0.7727 -0.90015,0.90013 v -1.80028 -1.80028 l 0.90015,0.90013 0.90013,0.90015 z m -205.73785,-118.9085 -1.06947,1.48529 -1.35021,-0.44447 -1.35021,-0.44448 -20.25316,-1.34774 -20.25317,-1.34774 -35.78059,-2.10224 -35.78058,-2.10225 -9.43504,-0.96637 -9.43503,-0.96637 -0.37059,-2.02532 -0.37059,-2.02532 10.48073,-5.08043 10.48073,-5.08043 62.44725,0.0171 62.44726,0.0171 v 1.38391 1.38393 l -4.66894,9.08021 -4.66892,9.08022 z m 409.81193,0.53452 -7.6841,0.005 -0.7345,-1.18859 -0.7346,-1.18858 -4.746,-8.7872 -4.7459,-8.78721 v -1.50101 -1.501 h 62.8513 62.85116 l 10.6986,5.06329 10.6985,5.06329 0.037,2.18841 0.036,2.18841 -9.1139,0.84064 -9.1139,0.84063 -29.7046,1.42363 -29.70456,1.42365 -21.6034,1.95534 -21.6034,1.95533 -7.684,0.005 z m 11.7346,-45.90169 h -0.6751 v -0.67511 -0.6751 h 0.6751 0.6751 v 0.6751 0.67511 z m -467.62675,-2.42643 -22.05717,0.40111 -0.59908,-0.60282 -0.59911,-0.60281 13.02078,-5.18513 13.02077,-5.18514 10.31059,-1.23259 10.3106,-1.23258 5.7155,-0.61162 5.71549,-0.61163 -1.22043,2.23131 -1.22042,2.23132 -5.17018,4.99974 -5.17017,4.99974 z m 493.20815,-0.31052 -23.0263,0.0365 -4.0484,-4.38819 -4.0484,-4.38818 -1.8792,-2.47919 -1.8792,-2.47919 13.4265,0.88012 13.4264,0.88012 6.2188,1.98049 6.2189,1.98049 9.3086,3.97023 9.3085,3.97024 -23.0262,0.0366 z M 593.11931,457.72151 h -0.50977 l -1.8531,-2.36287 -1.85308,-2.36287 2.36287,1.85308 2.36287,1.8531 v 0.50977 0.50979 z m 6.58573,-2.70042 h -0.6751 v -0.67511 -0.6751 h 0.6751 0.67511 v 0.6751 0.67511 z m 247.8625,-2.8603 -1.0732,1.7365 -0.804,-2.09528 -0.8041,-2.09529 1.198,-0.74037 1.1979,-0.74036 0.6793,1.09914 0.6793,1.09915 z m -0.7739,-1.19034 h 0.6751 v -0.6751 -0.67511 h -0.6751 -0.6751 v 0.67511 0.6751 z m -262.93845,1.32954 -2.34775,0.0207 0.27131,-3.27819 0.27131,-3.27818 1.0858,0.67106 1.0858,0.67107 -0.8701,1.40786 -0.87012,1.40788 1.86074,1.17857 1.86076,1.17857 -2.34775,0.0207 z m 99.10477,-94.27885 -0.89205,0.89032 -14.85232,-7.45866 -14.85232,-7.45867 -0.26261,-0.22031 -0.26263,-0.2203 9.36675,-29.66707 9.36673,-29.66705 21.91124,-65.14768 21.91124,-65.14767 h 0.83842 0.83843 l 1.62647,5.42861 1.62645,5.42862 -0.9541,1.65999 -0.9541,1.65999 1.07177,-0.96782 1.07177,-0.96781 29.50952,88.05642 29.50952,88.05642 -10e-4,0.67511 -10e-4,0.6751 -14.34792,7.42616 -14.34791,7.42616 -0.92453,0.37061 -0.92454,0.37062 -6.40489,-19.94868 -6.40489,-19.94866 -9.46033,-28.35443 -9.46035,-28.35443 -0.7128,-2.02532 -0.71281,-2.02532 -1.93265,7.42616 -1.93266,7.42616 -4.61327,13.50211 -4.61325,13.50211 -8.965,28.35443 -8.96499,28.35443 -0.89205,0.89035 z m 22.06154,-73.12663 h 0.6751 v -0.67511 -0.6751 h -0.6751 -0.67511 v 0.6751 0.67511 z m 13.50211,-22.95359 h 0.6751 v -0.6751 -0.67511 h -0.6751 -0.67511 v 0.67511 0.6751 z m 31.05485,0 h 0.6751 v -0.6751 -0.67511 h -0.6751 -0.67511 v 0.67511 0.6751 z m -58.05907,-24.3038 h 0.6751 v -0.6751 -0.67511 h -0.6751 -0.67511 v 0.67511 0.6751 z m 39.15612,-24.30379 h 0.6751 v -0.67511 -0.6751 h -0.6751 -0.67511 v 0.6751 0.67511 z m -29.70464,-2.70042 h 0.6751 v -0.67511 -0.6751 h -0.6751 -0.67511 v 0.6751 0.67511 z m 28.35442,-6.75106 h 0.67511 v -0.6751 -0.67511 h -0.67511 -0.6751 v 0.67511 0.6751 z m -8.10126,-21.60337 h 0.6751 v -0.67511 -0.6751 h -0.6751 -0.67511 v 0.6751 0.67511 z m -9.45148,-10.80169 h 0.67511 v -0.67511 -0.6751 h -0.67511 -0.6751 v 0.6751 0.67511 z m 1.35021,-5.40084 h 0.67511 v -0.67511 -0.67511 h -0.67511 -0.6751 v 0.67511 0.67511 z m 102.31358,160.49328 -3.0029,1.58949 -3.2076,-5.09202 -3.2076,-5.09202 -2.2283,-4.32114 -2.2284,-4.32113 v -0.58427 -0.58426 l 16.5401,-6.41738 16.5401,-6.41739 31.5801,-12.68081 31.5801,-12.68082 0.5999,0.59994 0.6,0.59994 -5.5736,5.57356 -5.5736,5.57356 -13.1043,8.47015 -13.1044,8.47013 -21.6033,12.86248 -21.6034,12.86249 z m -198.17855,0.005 -1.35021,-0.14341 -17.55275,-10.61097 -17.55274,-10.61097 -20.01829,-12.45538 -20.01828,-12.45539 -4.06143,-5.12794 -4.0614,-5.12795 h 0.47007 0.47007 l 6.732,2.51062 6.73199,2.51063 41.5827,16.51037 41.5827,16.5104 -2.52478,4.27012 -2.52479,4.27014 -3.27733,5.04657 -3.27732,5.04658 z"/></g></svg>